# xmcd
#
# Track frame offsets:
#	150
#	19500
#	39239
#	57102
#	75349
#	90954
#	106520
#	124164
#	144434
#	163303
#	181334
#	198104
#	221756
#	239363
#
# Disc length: 3484 seconds
#
# Revision: 2
# Processed by: cddbd v1.5.2PL0 Copyright (c) Steve Scherf et al.
# Submitted via: EZCDAudioConverter 1.0.8.1
#
DISCID=a60d9a0e
DTITLE=孫露 - 寂寞思情 BSCD
DYEAR=2008
DGENRE=Pop-Folk
TTITLE0=黃玫瑰
TTITLE1=離別的秋天
TTITLE2=錯
TTITLE3=無路可退
TTITLE4=把心交出來
TTITLE5=再度重相逢
TTITLE6=狂悲狂喜
TTITLE7=一定要愛你
TTITLE8=傷了我的心
TTITLE9=香煙愛上火柴
TTITLE10=相伴到老
TTITLE11=走樣
TTITLE12=寂寞才說愛
TTITLE13=生死不離
EXTD=
EXTT0=
EXTT1=
EXTT2=
EXTT3=
EXTT4=
EXTT5=
EXTT6=
EXTT7=
EXTT8=
EXTT9=
EXTT10=
EXTT11=
EXTT12=
EXTT13=
PLAYORDER=
